<svg display="none" xmlns="http://www.w3.org/2000/svg">
  <symbol id="delete" viewBox="0 0 16 17" >
    <svg  viewBox="0 0 16 17" fill="none" xmlns="http://www.w3.org/2000/svg">
    <path d="M3.453 15.6522L2.55826 7.15225C2.52719 6.85703 2.75867 6.5999 3.05552 6.5999H12.9447C13.2416 6.5999 13.4731 6.85703 13.442 7.15225L12.5472 15.6522C12.5205 15.9067 12.3059 16.0999 12.05 16.0999H3.95025C3.69437 16.0999 3.47979 15.9067 3.453 15.6522Z" fill="#CCCCCC"/>
    <path d="M15.0001 4.6999H1.00012C0.72398 4.6999 0.500122 4.47605 0.500122 4.1999V3.2999C0.500122 3.02376 0.72398 2.7999 1.00012 2.7999H3.35511C3.44983 2.7999 3.54261 2.77299 3.62263 2.72231L6.37761 0.977493C6.45764 0.92681 6.55041 0.899902 6.64514 0.899902H9.35511C9.44983 0.899902 9.54261 0.92681 9.62263 0.977493L12.3776 2.72231C12.4576 2.77299 12.5504 2.7999 12.6451 2.7999H15.0001C15.2763 2.7999 15.5001 3.02376 15.5001 3.2999V4.1999C15.5001 4.47604 15.2763 4.6999 15.0001 4.6999Z" fill="#CCCCCC"/>
    </svg>
  </symbol>
  <symbol id="folder" viewBox="0 0 16 17" >
    <svg width="14" height="12" viewBox="0 0 14 12" fill="none" xmlns="http://www.w3.org/2000/svg">
    <path fill-rule="evenodd" clip-rule="evenodd" d="M0.710016 1.96935L2.08181 0.524489C2.15733 0.444944 2.26221 0.399902 2.37189 0.399902H4.83441C4.9405 0.399902 5.04224 0.442045 5.11725 0.51706L6.48294 1.88275C6.55795 1.95776 6.6597 1.9999 6.76578 1.9999H12.4344C12.5405 1.9999 12.6422 2.04205 12.7173 2.11706L13.2829 2.68275C13.358 2.75776 13.4001 2.8595 13.4001 2.96559V10.6342C13.4001 10.7403 13.358 10.842 13.2829 10.9171L12.7173 11.4827C12.6422 11.5578 12.5405 11.5999 12.4344 11.5999H1.59C1.46983 11.5999 1.35602 11.5459 1.28005 11.4528L0.690151 10.7296C0.631907 10.6582 0.600098 10.5689 0.600098 10.4768V2.24476C0.600098 2.14227 0.639443 2.04368 0.710016 1.96935Z" fill="#CCCCCC"/>
    </svg>
  </symbol>
  <symbol id="close" viewBox="0 0 16 17" >
    <svg  viewBox="0 0 12 12" fill="none" xmlns="http://www.w3.org/2000/svg">
    <path d="M1.40385 0.696495C1.59911 0.501233 1.91569 0.501233 2.11095 0.696495L6.00016 4.5857L9.88921 0.696646C10.0845 0.501384 10.4011 0.501384 10.5963 0.696646L11.3034 1.40375C11.4987 1.59902 11.4987 1.9156 11.3034 2.11086L7.41437 5.99991L11.3033 9.88888C11.4986 10.0841 11.4986 10.4007 11.3033 10.596L10.5962 11.3031C10.401 11.4984 10.0844 11.4984 9.88913 11.3031L6.00016 7.41413L2.11103 11.3032C1.91577 11.4985 1.59919 11.4985 1.40393 11.3032L0.69682 10.5961C0.501558 10.4009 0.501558 10.0843 0.69682 9.88904L4.58594 5.99991L0.696739 2.11071C0.501477 1.91545 0.501477 1.59886 0.696739 1.4036L1.40385 0.696495Z" fill="#B3B3B3"/>
    </svg>
  </symbol>
    <symbol id="error" viewBox="0 0 16 17" >
    <svg  viewBox="0 0 40 40" fill="none" xmlns="http://www.w3.org/2000/svg">
    <path fill-rule="evenodd" clip-rule="evenodd" d="M19.9998 0.799805C9.4014 0.799805 0.799805 9.40141 0.799805 19.9998C0.799805 30.5982 9.4014 39.1998 19.9998 39.1998C30.5982 39.1998 39.1998 30.5982 39.1998 19.9998C39.1998 9.40141 30.5982 0.799805 19.9998 0.799805ZM12.4095 11.4835C12.7319 11.161 13.2548 11.161 13.5772 11.4835L20 17.9062L26.4225 11.4838C26.745 11.1613 27.2678 11.1613 27.5903 11.4838L28.758 12.6515C29.0805 12.974 29.0805 13.4968 28.758 13.8192L22.3355 20.2417L28.7579 26.6641C29.0804 26.9865 29.0804 27.5094 28.7579 27.8318L27.5902 28.9996C27.2677 29.322 26.7449 29.322 26.4224 28.9996L20 22.5772L13.5773 28.9998C13.2549 29.3223 12.7321 29.3223 12.4096 28.9998L11.2419 27.8321C10.9194 27.5096 10.9194 26.9868 11.2419 26.6643L17.6645 20.2417L11.2417 13.819C10.9193 13.4965 10.9193 12.9737 11.2417 12.6512L12.4095 11.4835Z" fill="#E84E58"/>
    </svg>
  </symbol>
  <symbol id="success" viewBox="0 0 16 17" >
    <svg  viewBox="0 0 40 40" fill="none" xmlns="http://www.w3.org/2000/svg">
    <path fill-rule="evenodd" clip-rule="evenodd" d="M0.800049 20C0.800049 9.40165 9.40165 0.800049 20 0.800049C30.5985 0.800049 39.2001 9.40165 39.2001 20C39.2001 30.5985 30.5985 39.2001 20 39.2001C9.40165 39.2001 0.800049 30.5985 0.800049 20ZM27.4093 12.9903C26.9678 12.6817 26.3556 12.7557 26.0058 13.16L17.8957 22.5311L13.715 18.7738C13.3165 18.4157 12.7008 18.4157 12.3023 18.7738L10.7329 20.1842C10.2891 20.5831 10.2891 21.264 10.7329 21.6629L16.5953 26.9314C16.7874 27.1041 17.0396 27.2001 17.3016 27.2001H18.9073C19.2144 27.2001 19.5058 27.0683 19.7033 26.8401L29.3568 15.6856C29.7452 15.2368 29.6585 14.5625 29.1684 14.2199L27.4093 12.9903Z" fill="#05AE71"/>
    </svg>
</symbol>
</svg>